<?xml version="1.0" standalone="no"?>
<!DOCTYPE svg PUBLIC "-//W3C//DTD SVG 20010904//EN"
 "http://www.w3.org/TR/2001/REC-SVG-20010904/DTD/svg10.dtd">
<svg version="1.0" xmlns="http://www.w3.org/2000/svg"
 width="407.000000pt" height="154.000000pt" viewBox="0 0 407.000000 154.000000"
 preserveAspectRatio="xMidYMid meet">

<g transform="translate(0.000000,154.000000) scale(0.100000,-0.100000)"
fill="#000000" stroke="none">
<path d="M2332 1254 c-21 -15 -22 -20 -22 -213 0 -242 -6 -231 128 -231 80 0
95 3 113 21 18 18 19 23 6 42 -12 18 -27 23 -83 27 l-69 5 0 45 0 45 74 5 c62
4 75 8 81 25 15 40 -5 55 -73 55 -79 0 -89 7 -85 56 l3 39 69 5 c56 4 71 9 83
27 13 19 12 24 -6 42 -18 18 -33 21 -109 21 -63 0 -94 -4 -110 -16z"/>
<path d="M2652 1258 c-17 -17 -17 -419 0 -436 17 -17 42 -15 61 6 15 16 17 46
17 214 0 176 -2 196 -18 211 -22 20 -43 22 -60 5z"/>
<path d="M2953 1258 c-12 -15 -127 -289 -151 -361 -18 -54 -10 -80 26 -85 15
-2 27 6 41 30 35 58 37 59 119 56 l77 -3 23 -42 c28 -51 65 -59 83 -19 13 27
6 46 -99 296 -51 120 -60 135 -83 138 -14 2 -30 -3 -36 -10z m60 -222 c21 -45
16 -56 -28 -56 -44 0 -49 10 -29 60 19 48 32 47 57 -4z"/>
<path d="M1001 1236 c-9 -10 -8 -16 4 -26 19 -15 47 3 38 26 -7 18 -27 18 -42
0z"/>
<path d="M960 1148 c0 -7 -3 -30 -6 -50 l-7 -38 73 0 73 0 -7 38 c-3 20 -6 43
-6 50 0 8 -19 12 -60 12 -41 0 -60 -4 -60 -12z"/>
<path d="M731 1131 c-9 -16 -7 -20 14 -23 26 -6 51 14 40 32 -10 17 -44 11
-54 -9z"/>
<path d="M1240 1129 c0 -15 5 -20 22 -17 34 5 37 38 4 38 -20 0 -26 -5 -26
-21z"/>
<path d="M700 1018 l0 -53 62 2 63 1 -1 46 c0 56 -6 63 -40 47 -19 -8 -30 -9
-38 -1 -5 5 -18 10 -28 10 -15 0 -18 -9 -18 -52z"/>
<path d="M1200 1038 c0 -18 -3 -42 -6 -53 -5 -19 -1 -20 67 -17 l71 4 -6 30
c-3 17 -6 39 -6 49 0 17 -8 19 -60 19 l-60 0 0 -32z"/>
<path d="M631 891 c-9 -15 -7 -20 11 -24 26 -7 49 9 41 29 -8 20 -41 17 -52
-5z"/>
<path d="M1334 899 c-3 -6 1 -18 10 -27 15 -15 17 -15 32 0 19 19 11 38 -16
38 -10 0 -22 -5 -26 -11z"/>
<path d="M614 822 c-6 -4 -15 -26 -19 -49 l-7 -43 72 0 72 0 -7 48 c-4 26 -9
49 -11 51 -2 2 -16 -1 -30 -8 -19 -8 -30 -9 -38 -1 -12 12 -17 12 -32 2z"/>
<path d="M1296 808 c-3 -13 -6 -35 -6 -50 0 -28 0 -28 69 -28 l70 0 -5 38 c-9
62 -10 62 -68 62 -47 0 -54 -3 -60 -22z"/>
<path d="M3416 664 c-4 -9 -4 -19 -1 -22 6 -6 35 18 35 29 0 16 -28 10 -34 -7z"/>
<path d="M1234 655 c-4 -9 -2 -21 4 -27 15 -15 44 -1 40 19 -4 23 -36 29 -44
8z"/>
<path d="M740 645 c-15 -19 -11 -24 21 -27 18 -2 25 2 27 20 3 16 -2 22 -16
22 -11 0 -25 -7 -32 -15z"/>
<path d="M1722 508 c2 -93 6 -113 18 -113 18 0 25 70 15 163 -5 44 -11 62 -21
62 -12 0 -14 -19 -12 -112z"/>
<path d="M2890 600 c0 -11 7 -20 15 -20 8 0 15 9 15 20 0 11 -7 20 -15 20 -8
0 -15 -9 -15 -20z"/>
<path d="M3007 613 c-10 -10 -8 -33 3 -33 5 0 14 9 20 20 8 15 8 20 -3 20 -8
0 -17 -3 -20 -7z"/>
<path d="M3372 514 c-12 -58 -20 -110 -17 -115 9 -13 33 0 38 22 7 25 44 25
52 -1 3 -11 15 -20 26 -20 16 0 18 4 12 28 -3 15 -14 63 -23 107 -14 73 -18
80 -41 83 -24 3 -25 -1 -47 -104z m58 -14 c0 -11 -4 -20 -10 -20 -5 0 -10 9
-10 20 0 11 5 20 10 20 6 0 10 -9 10 -20z"/>
<path d="M3665 611 c-8 -15 3 -31 21 -31 9 0 14 7 12 17 -4 20 -24 28 -33 14z"/>
<path d="M3740 510 c0 -91 3 -110 15 -110 12 0 15 19 15 110 0 91 -3 110 -15
110 -12 0 -15 -19 -15 -110z"/>
<path d="M1960 575 c0 -9 -7 -18 -15 -21 -8 -4 -15 -12 -15 -19 0 -7 7 -15 15
-19 10 -3 15 -19 15 -48 0 -52 9 -67 40 -70 16 -2 25 3 28 15 2 10 -3 17 -11
17 -32 0 -37 74 -7 90 11 6 20 15 20 19 0 5 -9 11 -20 14 -11 3 -20 12 -20 21
0 9 -7 16 -15 16 -8 0 -15 -7 -15 -15z"/>
<path d="M710 553 c0 -16 -3 -38 -6 -50 -6 -22 -4 -23 65 -23 l71 0 -6 43 c-8
52 -18 64 -39 47 -12 -10 -21 -10 -41 -1 -37 16 -44 14 -44 -16z"/>
<path d="M1197 573 c-4 -3 -7 -26 -7 -50 l0 -43 65 0 65 0 0 34 c0 59 -7 66
-64 66 -29 0 -56 -3 -59 -7z"/>
<path d="M1802 475 c3 -93 21 -104 28 -18 4 45 9 59 23 61 15 3 17 -5 17 -57
0 -54 2 -61 20 -61 18 0 20 7 20 58 0 75 -15 95 -69 96 l-42 1 3 -80z"/>
<path d="M2090 552 c-26 -8 -40 -34 -40 -76 0 -47 6 -58 37 -75 26 -13 67 -1
77 25 11 28 -10 40 -33 20 -21 -19 -41 -14 -41 10 0 10 12 14 40 14 35 0 40 3
40 23 0 41 -40 71 -80 59z m40 -42 c0 -5 -9 -10 -21 -10 -11 0 -17 5 -14 10 3
6 13 10 21 10 8 0 14 -4 14 -10z"/>
<path d="M2204 551 c-2 -2 -4 -37 -4 -78 0 -58 3 -73 15 -73 11 0 15 12 15 48
0 54 7 68 35 73 11 3 20 11 20 19 0 11 -11 15 -38 15 -21 0 -41 -2 -43 -4z"/>
<path d="M2315 547 c-2 -6 4 -41 14 -77 14 -50 23 -66 38 -68 17 -3 23 8 40
70 14 51 16 75 9 80 -15 10 -29 -7 -42 -50 l-11 -37 -7 42 c-7 40 -32 65 -41
40z"/>
<path d="M2490 552 c-26 -8 -40 -34 -40 -73 0 -51 8 -69 38 -80 31 -12 72 12
72 41 0 24 -13 26 -30 5 -18 -21 -40 -19 -40 5 0 16 7 20 34 20 43 0 51 12 34
46 -14 29 -43 44 -68 36z m30 -42 c0 -5 -7 -10 -15 -10 -8 0 -15 5 -15 10 0 6
7 10 15 10 8 0 15 -4 15 -10z"/>
<path d="M2628 553 c-28 -4 -28 -5 -28 -78 0 -41 4 -76 8 -79 19 -12 34 13 32
55 -4 62 -2 69 15 69 15 0 21 -39 16 -97 -1 -17 4 -23 19 -23 18 0 20 6 20 64
0 56 -3 67 -22 80 -12 9 -25 15 -28 15 -3 -1 -17 -4 -32 -6z"/>
<path d="M2762 544 c-17 -12 -22 -25 -22 -59 0 -57 8 -75 38 -86 31 -12 72 12
72 41 0 24 -18 26 -35 3 -18 -24 -35 -7 -35 38 0 28 4 39 15 39 9 0 18 -7 21
-15 9 -22 34 -18 34 4 0 20 -34 51 -55 51 -6 0 -21 -7 -33 -16z"/>
<path d="M2891 541 c-17 -30 -14 -138 3 -144 22 -9 26 2 26 79 0 75 -11 99
-29 65z"/>
<path d="M2982 549 c-23 -9 -25 -17 -22 -84 2 -51 14 -65 56 -65 40 0 54 21
54 77 0 61 -37 91 -88 72z m46 -71 c-4 -51 -31 -61 -36 -15 -4 37 4 57 23 57
13 0 15 -9 13 -42z"/>
<path d="M3103 545 c-2 -7 -3 -43 -1 -81 2 -53 6 -69 18 -69 11 0 16 15 18 63
2 44 7 62 16 62 18 0 26 -23 26 -76 0 -32 4 -44 15 -44 12 0 15 14 15 63 0 34
-4 68 -9 75 -11 17 -91 23 -98 7z"/>
<path d="M3532 544 c-26 -19 -24 -120 2 -140 11 -8 28 -12 38 -8 13 4 18 0 18
-15 0 -25 -17 -27 -42 -5 -16 16 -18 16 -24 0 -17 -45 63 -64 91 -22 12 18 15
45 13 112 l-3 88 -38 2 c-21 0 -45 -5 -55 -12z m53 -70 c0 -28 -4 -39 -15 -39
-16 0 -26 45 -16 72 11 28 31 7 31 -33z"/>
<path d="M3673 553 c-19 -7 -18 -149 1 -156 22 -9 26 2 26 79 0 73 -4 85 -27
77z"/>
<path d="M991 532 c-8 -16 -7 -21 5 -26 31 -12 45 -7 42 16 -4 29 -34 35 -47
10z"/>
<path d="M956 438 c-3 -13 -6 -35 -6 -50 0 -28 0 -28 71 -28 69 0 71 1 65 23
-3 12 -6 34 -6 50 0 29 -25 38 -47 16 -8 -8 -17 -8 -31 0 -30 16 -39 14 -46
-11z"/>
</g>
</svg>
