<svg id="Capa_1" data-name="Capa 1" xmlns="http://www.w3.org/2000/svg" xmlns:xlink="http://www.w3.org/1999/xlink" viewBox="0 0 379.14 502.8"><defs><style>.cls-1,.cls-3,.cls-4{fill:none;}.cls-2{clip-path:url(#clip-path);}.cls-3{stroke:#9d9d9b;}.cls-3,.cls-4{stroke-linecap:round;stroke-linejoin:round;stroke-width:0;}.cls-4{stroke:#000;}</style><clipPath id="clip-path" transform="translate(-130.76 -253.22)"><polyline class="cls-1" points="46.76 794 609.26 794 609.26 204.86 46.76 204.86 46.76 794"/></clipPath></defs><title>prueba2</title><g class="cls-2"><polyline class="cls-3" points="326.76 452.7 325.02 452.7 326.76 452.7"/><polyline class="cls-3" points="325.02 452.7 325.02 419.28 326.76 419.28 325.02 419.28 325.02 452.7"/><polyline class="cls-3" points="326.76 419.28 326.76 452.7 326.76 419.28"/><polyline class="cls-3" points="321.18 419.64 325.02 419.28 321.18 419.64"/><polyline class="cls-3" points="336.84 452.7 50.64 452.7 336.84 452.7"/><polyline class="cls-3" points="336.84 452.7 336.84 329.46 329.22 329.46 329.22 296.4 336.84 296.4 336.84 51.96 328.14 51.96 328.14 38.4 57.6 38.4 57.6 51.96 50.64 51.96 50.64 296.4 56.94 296.4 56.94 329.46 50.64 329.46 50.64 452.7 50.64 329.46 56.94 329.46 56.94 296.4 50.64 296.4 50.64 51.96 57.6 51.96 57.6 38.4 328.14 38.4 328.14 51.96 336.84 51.96 336.84 296.4 329.22 296.4 329.22 329.46 336.84 329.46 336.84 452.7"/><polyline class="cls-4" points="0 0 0 502.8 379.14 502.8 379.14 0 0 0"/><path class="cls-3" d="M452.4,672.74a37.41,37.41,0,0,0-33,33.5" transform="translate(-130.76 -253.22)"/><path class="cls-3" d="M452.4,672.74a37.41,37.41,0,0,0-33,33.5" transform="translate(-130.76 -253.22)"/><polyline class="cls-3" points="124.68 424.38 124.68 391.68 59.58 391.68 59.58 424.38 124.68 424.38"/><polyline class="cls-3" points="83.94 436.56 84.3 434.82 83.94 436.56"/><polyline class="cls-3" points="81.9 438.66 82.2 437.28 81.9 438.66"/><polyline class="cls-3" points="90.24 426.84 92.64 427.5 90.24 426.84"/><polyline class="cls-3" points="84.66 433.8 85.68 434.16 84.66 433.8"/><polyline class="cls-3" points="87.42 427.86 88.14 426.84 87.42 427.86"/><line class="cls-3" x1="85.68" y1="430.68" x2="85.68" y2="430.68"/><polyline class="cls-3" points="85.68 430.68 85.02 432.06 85.68 430.68"/><polyline class="cls-3" points="83.94 431.7 83.64 432.42 83.94 431.7"/><polyline class="cls-3" points="85.02 432.06 85.02 432.72 85.02 432.06"/><line class="cls-3" x1="85.02" y1="430.32" x2="85.02" y2="430.32"/><line class="cls-3" x1="84.3" y1="430.32" x2="84.3" y2="430.32"/><polyline class="cls-3" points="84.3 430.68 84.3 430.98 84.3 430.68"/><line class="cls-3" x1="83.94" y1="430.98" x2="83.94" y2="430.98"/><polyline class="cls-3" points="84.3 430.98 84.3 431.34 84.3 430.98"/><polyline class="cls-3" points="83.94 431.34 83.94 431.7 83.94 431.34"/><line class="cls-3" x1="83.94" y1="431.7" x2="83.94" y2="431.7"/><polyline class="cls-3" points="83.64 432.42 83.64 432.72 83.64 432.42"/><polyline class="cls-3" points="85.02 432.72 84.66 433.08 85.02 432.72"/><polyline class="cls-3" points="85.38 430.68 85.68 430.68 85.38 430.68"/><polyline class="cls-3" points="85.02 430.32 85.38 430.32 85.38 430.68 85.68 430.68 85.38 430.68 85.38 430.32 85.02 430.32"/><line class="cls-3" x1="85.02" y1="430.32" x2="85.02" y2="430.32"/><line class="cls-3" x1="84.66" y1="430.32" x2="84.66" y2="430.32"/><line class="cls-3" x1="84.66" y1="430.32" x2="84.66" y2="430.32"/><polyline class="cls-3" points="84.3 430.32 84.66 430.32 84.3 430.32"/><polyline class="cls-3" points="88.14 426.84 88.86 426.84 90.24 426.84 88.86 426.84 88.14 426.84"/><line class="cls-3" x1="84.3" y1="430.68" x2="84.3" y2="430.68"/><line class="cls-3" x1="83.28" y1="434.16" x2="83.28" y2="434.16"/><polyline class="cls-3" points="83.28 434.16 82.92 434.16 83.28 434.16"/><polyline class="cls-3" points="82.92 434.16 82.92 433.8 82.92 434.16"/><polyline class="cls-3" points="83.28 434.16 82.92 433.8 83.28 434.16"/><line class="cls-3" x1="82.92" y1="433.8" x2="82.92" y2="433.8"/><polyline class="cls-3" points="82.56 436.2 83.28 434.46 82.56 436.2"/><polyline class="cls-3" points="82.56 433.08 82.56 432.72 82.56 433.08"/><polyline class="cls-3" points="83.28 433.08 82.56 432.72 83.28 433.08"/><line class="cls-3" x1="82.92" y1="433.8" x2="82.92" y2="433.8"/><line class="cls-3" x1="82.92" y1="433.8" x2="82.92" y2="433.8"/><polyline class="cls-3" points="84.3 434.82 85.02 433.08 84.3 434.82"/><polyline class="cls-3" points="83.28 434.46 83.64 432.72 83.28 434.46"/><polyline class="cls-3" points="84.3 430.32 82.92 433.8 84.3 430.32"/><polyline class="cls-3" points="82.2 437.28 82.56 436.2 82.2 437.28"/><polyline class="cls-3" points="82.56 432.72 81.54 435.18 82.56 432.72"/><polyline class="cls-3" points="81.54 435.54 81.54 435.18 81.54 435.54"/><polyline class="cls-3" points="82.56 432.72 81.54 435.54 82.56 432.72"/><polyline class="cls-3" points="82.56 435.9 81.54 435.54 82.56 435.9"/><polyline class="cls-3" points="83.94 436.2 84.66 436.56 83.94 436.2"/><polyline class="cls-3" points="83.64 437.64 83.94 436.56 83.64 437.64"/><polyline class="cls-3" points="96.12 445.62 94.38 445.26 96.12 445.62"/><polyline class="cls-3" points="101.04 441.48 101.7 440.04 101.04 441.48"/><polyline class="cls-3" points="103.8 439.38 103.8 439.02 103.8 439.38"/><polyline class="cls-3" points="93 447.72 91.98 447.72 93 447.72"/><polyline class="cls-3" points="90.24 450.18 89.16 450.18 90.24 450.18"/><polyline class="cls-3" points="104.16 438.3 103.14 441.78 104.16 438.3"/><polyline class="cls-3" points="98.58 444.6 97.86 445.26 98.58 444.6"/><polyline class="cls-3" points="97.86 445.26 97.2 445.26 97.86 445.26"/><polyline class="cls-3" points="97.2 445.62 96.12 445.62 97.2 445.62"/><polyline class="cls-3" points="99.6 442.5 100.32 442.86 99.6 442.5"/><line class="cls-3" x1="102.78" y1="441.78" x2="102.78" y2="441.78"/><polyline class="cls-3" points="103.8 439.38 103.14 440.04 103.8 439.38"/><polyline class="cls-3" points="103.14 440.76 103.14 440.04 103.14 440.76"/><polyline class="cls-3" points="100.32 442.86 101.04 441.48 100.32 442.86"/><line class="cls-3" x1="103.8" y1="439.38" x2="103.8" y2="439.38"/><line class="cls-3" x1="103.8" y1="439.38" x2="103.8" y2="439.38"/><polyline class="cls-3" points="94.08 448.08 93 447.72 94.08 448.08"/><polyline class="cls-3" points="91.26 450.48 90.24 450.18 91.26 450.48"/><polyline class="cls-3" points="101.04 444.6 101.7 443.52 101.04 444.6"/><line class="cls-3" x1="97.56" y1="448.08" x2="97.56" y2="448.08"/><line class="cls-3" x1="97.56" y1="448.08" x2="97.56" y2="448.08"/><polyline class="cls-3" points="97.2 447.72 97.56 448.08 97.2 447.72"/><polyline class="cls-3" points="97.56 448.08 97.56 449.1 97.56 448.08"/><polyline class="cls-3" points="97.86 448.44 97.86 448.08 97.86 448.44"/><polyline class="cls-3" points="98.22 448.08 97.86 448.08 98.22 448.08"/><polyline class="cls-3" points="99.6 447.72 98.94 448.08 99.6 447.72"/><line class="cls-3" x1="99.6" y1="447.72" x2="99.6" y2="447.72"/><line class="cls-3" x1="99.6" y1="447.72" x2="99.6" y2="447.72"/><line class="cls-3" x1="99.6" y1="447.72" x2="99.6" y2="447.72"/><polyline class="cls-3" points="97.86 448.08 98.58 446.7 97.86 448.08"/><polyline class="cls-3" points="101.04 444.6 100.32 445.98 99.6 447.36 99.6 447.72 99.6 447.36 100.32 445.98 101.04 444.6"/><polyline class="cls-3" points="98.58 446.7 99.3 445.26 98.58 446.7"/><polyline class="cls-3" points="97.56 449.1 97.56 449.46 97.56 449.1"/><polyline class="cls-3" points="97.86 448.08 97.56 448.08 97.86 448.08"/><line class="cls-3" x1="99.6" y1="447.72" x2="99.6" y2="447.72"/><polyline class="cls-3" points="99.6 447.72 98.22 448.08 99.6 447.72"/><polyline class="cls-3" points="98.94 448.08 97.56 448.74 98.94 448.08"/><polyline class="cls-3" points="96.84 447.72 95.82 448.08 96.84 447.72"/><polyline class="cls-3" points="96.84 448.08 97.2 447.72 96.84 448.08"/><polyline class="cls-3" points="101.7 443.22 102.78 443.88 101.7 443.22"/><line class="cls-3" x1="103.14" y1="441.78" x2="103.14" y2="441.78"/><line class="cls-3" x1="102.42" y1="441.78" x2="102.42" y2="441.78"/><polyline class="cls-3" points="103.14 441.78 102.78 441.78 103.14 441.78"/><polyline class="cls-3" points="103.14 441.48 102.78 441.78 103.14 441.48"/><polyline class="cls-3" points="101.7 443.52 102.42 442.14 101.7 443.52"/><polyline class="cls-3" points="103.8 441.12 102.78 443.88 103.8 441.12"/><line class="cls-3" x1="102.78" y1="443.88" x2="102.78" y2="443.88"/><polyline class="cls-3" points="104.16 441.12 103.14 443.88 104.16 441.12"/><polyline class="cls-3" points="103.8 441.48 103.8 441.12 103.8 441.48"/><polyline class="cls-3" points="97.2 450.18 96.12 450.48 97.2 450.18"/><polyline class="cls-3" points="95.1 450.48 94.08 450.48 95.1 450.48"/><polyline class="cls-3" points="96.12 450.48 95.1 450.84 96.12 450.48"/><polyline class="cls-3" points="93 450.84 91.98 450.48 93 450.84"/><polyline class="cls-3" points="94.08 450.84 93 450.84 94.08 450.84"/><polyline class="cls-3" points="97.56 449.46 97.2 450.18 97.56 449.46"/><polyline class="cls-3" points="96.12 448.08 95.1 448.08 96.12 448.08"/><polyline class="cls-3" points="99.3 445.26 100.32 442.86 99.3 445.26"/><polyline class="cls-3" points="103.14 440.76 103.8 441.12 103.14 440.76"/><line class="cls-3" x1="102.78" y1="441.78" x2="102.78" y2="441.78"/><polyline class="cls-3" points="102.42 442.14 103.14 440.76 102.42 442.14"/><polyline class="cls-3" points="92.34 450.48 91.26 450.48 92.34 450.48"/><polyline class="cls-3" points="94.74 448.08 94.08 448.08 94.74 448.08"/><polyline class="cls-3" points="90.6 443.88 86.76 442.14 90.6 443.88"/><polyline class="cls-3" points="86.76 442.14 85.38 441.12 86.76 442.14"/><polyline class="cls-3" points="82.56 440.4 83.28 439.02 82.56 440.4"/><polyline class="cls-3" points="87.42 427.5 84.3 439.02 84.3 439.68 84.66 440.4 84.3 439.68 84.3 439.02 87.42 427.5"/><polyline class="cls-3" points="85.38 441.48 84.66 440.4 85.38 441.48"/><polyline class="cls-3" points="100.68 440.04 101.7 440.4 100.68 440.04"/><line class="cls-3" x1="103.14" y1="437.64" x2="103.14" y2="437.64"/><polyline class="cls-3" points="103.14 437.64 102.42 439.02 103.14 437.64"/><line class="cls-3" x1="103.8" y1="437.64" x2="103.8" y2="437.64"/><line class="cls-3" x1="104.16" y1="438.3" x2="104.16" y2="438.3"/><polyline class="cls-3" points="104.16 438.66 104.16 438.3 104.16 438.66"/><polyline class="cls-3" points="102.06 440.04 102.06 439.68 102.06 440.04"/><polyline class="cls-3" points="103.14 437.64 103.44 437.64 103.14 437.64"/><line class="cls-3" x1="103.44" y1="437.64" x2="103.44" y2="437.64"/><polyline class="cls-3" points="103.44 437.64 103.8 437.64 103.44 437.64"/><line class="cls-3" x1="103.8" y1="437.64" x2="103.8" y2="437.64"/><polyline class="cls-3" points="103.8 437.64 104.16 437.64 103.8 437.64"/><polyline class="cls-3" points="103.8 437.64 104.16 437.64 103.8 437.64"/><polyline class="cls-3" points="104.16 437.64 104.16 437.94 104.16 437.64"/><line class="cls-3" x1="104.16" y1="437.94" x2="104.16" y2="437.94"/><line class="cls-3" x1="104.16" y1="437.94" x2="104.16" y2="437.94"/><line class="cls-3" x1="104.16" y1="437.94" x2="104.16" y2="437.94"/><line class="cls-3" x1="104.16" y1="438.3" x2="104.16" y2="438.3"/><line class="cls-3" x1="104.16" y1="438.3" x2="104.16" y2="438.3"/><polyline class="cls-3" points="102.06 439.68 102.42 439.02 102.06 439.68"/><polyline class="cls-3" points="104.16 439.02 104.16 438.66 104.16 439.02"/><polyline class="cls-3" points="91.26 447.36 90.24 447.36 89.16 446.7 90.24 447.36 91.26 447.36"/><polyline class="cls-3" points="91.98 447.72 91.26 447.72 91.98 447.72"/><polyline class="cls-3" points="94.38 445.26 90.6 443.88 94.38 445.26"/><polyline class="cls-3" points="89.16 446.7 88.5 446.7 89.16 446.7"/><polyline class="cls-3" points="88.5 446.7 87.78 445.98 88.5 446.7"/><polyline class="cls-3" points="85.68 448.08 84.66 447.72 85.68 448.08"/><polyline class="cls-3" points="81.9 444.96 81.18 443.88 81.9 444.96"/><polyline class="cls-3" points="84.66 447.72 83.94 447 84.66 447.72"/><polyline class="cls-3" points="86.76 445.62 86.04 444.96 86.76 445.62"/><polyline class="cls-3" points="86.04 445.26 85.02 444.6 86.04 445.26"/><polyline class="cls-3" points="82.56 442.14 82.2 442.14 82.56 442.14"/><line class="cls-3" x1="82.56" y1="442.14" x2="82.56" y2="442.14"/><polyline class="cls-3" points="82.56 442.14 82.92 442.14 82.56 442.14"/><polyline class="cls-3" points="81.18 443.88 81.54 443.22 81.18 443.88"/><polyline class="cls-3" points="82.2 442.14 81.54 442.86 82.2 442.14"/><line class="cls-3" x1="82.2" y1="442.14" x2="82.2" y2="442.14"/><polyline class="cls-3" points="82.2 442.14 82.2 441.78 82.2 442.14"/><polyline class="cls-3" points="81.18 440.4 81.18 441.12 81.18 440.4"/><polyline class="cls-3" points="82.2 441.78 81.18 440.76 82.2 441.78"/><polyline class="cls-3" points="81.54 440.76 81.54 440.4 81.54 440.76"/><polyline class="cls-3" points="81.18 440.4 81.54 440.04 81.18 440.4"/><polyline class="cls-3" points="82.92 442.14 83.28 442.5 82.92 442.14"/><line class="cls-3" x1="81.54" y1="443.22" x2="81.54" y2="443.22"/><polyline class="cls-3" points="82.2 442.14 82.2 441.78 82.2 442.14"/><line class="cls-3" x1="81.18" y1="440.4" x2="81.18" y2="440.4"/><line class="cls-3" x1="81.18" y1="440.4" x2="81.18" y2="440.4"/><polyline class="cls-3" points="82.2 442.5 81.54 441.12 82.2 442.5"/><polyline class="cls-3" points="83.64 443.22 83.28 442.5 83.64 443.22"/><polyline class="cls-3" points="83.28 446.34 82.56 445.62 83.28 446.34"/><polyline class="cls-3" points="82.56 445.62 81.9 444.96 82.56 445.62"/><polyline class="cls-3" points="85.02 444.6 84.3 443.88 85.02 444.6"/><polyline class="cls-3" points="84.66 443.88 83.64 443.22 84.66 443.88"/><polyline class="cls-3" points="83.94 447 83.28 446.34 83.94 447"/><polyline class="cls-3" points="89.16 449.82 88.5 449.46 87.42 449.1 88.5 449.46 89.16 449.82"/><polyline class="cls-3" points="86.4 448.74 85.68 448.08 86.4 448.74"/><polyline class="cls-3" points="87.12 449.1 86.4 448.74 87.12 449.1"/><polyline class="cls-3" points="87.78 446.34 86.76 445.62 87.78 446.34"/><polyline class="cls-3" points="82.2 442.14 82.56 440.4 82.2 442.14"/><polyline class="cls-3" points="92.64 427.5 96.48 428.94 92.64 427.5"/><polyline class="cls-3" points="83.28 439.02 83.64 437.64 83.28 439.02"/><polyline class="cls-3" points="81.54 440.04 81.9 438.66 81.54 440.04"/><polyline class="cls-3" points="103.14 432.42 103.8 433.08 103.14 432.42"/><polyline class="cls-3" points="100.32 430.68 102.06 431.7 103.14 432.42 102.06 431.7 100.32 430.68"/><polyline class="cls-3" points="103.8 433.08 103.8 433.8 103.8 433.08"/><polyline class="cls-3" points="103.8 434.16 98.58 444.6 103.8 434.16"/><polyline class="cls-3" points="96.48 428.94 100.32 430.68 96.48 428.94"/><polyline class="cls-3" points="108.66 403.14 92.34 400.74 108.66 403.14"/><polyline class="cls-3" points="92.64 399 108.66 401.76 108.36 404.22 92.34 401.4 92.64 399"/><polyline class="cls-3" points="98.58 397.2 103.8 397.92 103.14 400.74 98.22 400.02 98.58 397.2"/><polyline class="cls-3" points="97.56 403.86 102.78 404.52 102.78 403.14 97.86 402.48 97.56 403.86"/><polyline class="cls-3" points="90.24 408.72 108 411.84 90.24 408.72"/><polyline class="cls-3" points="106.92 419.52 88.86 416.7 106.92 419.52"/><polyline class="cls-3" points="88.5 416.04 89.52 409.08 88.5 416.04"/><polyline class="cls-3" points="91.62 415.68 92.34 411.48 89.88 411.18 89.16 415.32 91.62 415.68"/><polyline class="cls-3" points="88.86 416.4 88.5 416.04 88.86 416.4"/><polyline class="cls-3" points="90.9 409.74 90.9 410.1 91.26 410.1 91.26 409.74 90.9 409.74"/><polyline class="cls-3" points="89.52 409.44 90.24 409.08 89.52 409.44"/><polyline class="cls-3" points="92.34 410.1 91.98 410.1 92.34 410.1"/><polyline class="cls-3" points="106.62 418.14 107.28 413.94 97.56 412.56 97.2 416.7 106.62 418.14"/><polyline class="cls-3" points="95.46 416.4 95.82 414.66 93.72 414.3 93.36 416.04 95.46 416.4"/><polyline class="cls-3" points="106.62 412.92 106.92 412.2 102.78 411.48 102.42 412.2 106.62 412.92"/><polyline class="cls-3" points="102.06 412.2 102.42 411.48 97.86 410.82 97.86 411.48 102.06 412.2"/><polyline class="cls-3" points="97.56 411.18 97.56 410.82 93.36 409.74 93 410.82 97.56 411.18"/><polyline class="cls-3" points="97.2 414.3 97.2 412.56 93 411.84 92.64 413.58 97.2 414.3"/><polyline class="cls-3" points="124.68 424.38 124.68 391.68 59.58 391.68 59.58 424.38 124.68 424.38"/><line class="cls-3" x1="85.68" y1="430.68" x2="85.68" y2="430.68"/><line class="cls-3" x1="85.02" y1="430.32" x2="85.02" y2="430.32"/><line class="cls-3" x1="84.3" y1="430.68" x2="84.3" y2="430.68"/><line class="cls-3" x1="83.28" y1="434.16" x2="83.28" y2="434.16"/><line class="cls-3" x1="82.92" y1="433.8" x2="82.92" y2="433.8"/><line class="cls-3" x1="82.92" y1="433.8" x2="82.92" y2="433.8"/><line class="cls-3" x1="102.78" y1="441.78" x2="102.78" y2="441.78"/><line class="cls-3" x1="99.6" y1="447.72" x2="99.6" y2="447.72"/><line class="cls-3" x1="102.42" y1="441.78" x2="102.42" y2="441.78"/><polyline class="cls-3" points="103.14 437.64 103.44 437.64 103.14 437.64"/><line class="cls-3" x1="104.16" y1="437.94" x2="104.16" y2="437.94"/><line class="cls-3" x1="104.16" y1="438.3" x2="104.16" y2="438.3"/><line class="cls-3" x1="81.18" y1="440.4" x2="81.18" y2="440.4"/><line class="cls-3" x1="81.18" y1="440.4" x2="81.18" y2="440.4"/><polyline class="cls-3" points="92.64 399 108.66 401.76 108.36 404.22 92.34 401.4 92.64 399"/><polyline class="cls-3" points="98.58 397.2 103.8 397.92 103.14 400.74 98.22 400.02 98.58 397.2"/><polyline class="cls-3" points="97.56 403.86 102.78 404.52 102.78 403.14 97.86 402.48 97.56 403.86"/><polyline class="cls-3" points="91.62 415.68 92.34 411.48 89.88 411.18 89.16 415.32 91.62 415.68"/><polyline class="cls-3" points="90.9 409.74 90.9 410.1 91.26 410.1 91.26 409.74 90.9 409.74"/><polyline class="cls-3" points="92.34 410.1 91.98 410.1 92.34 410.1"/><polyline class="cls-3" points="106.62 418.14 107.28 413.94 97.56 412.56 97.2 416.7 106.62 418.14"/><polyline class="cls-3" points="95.46 416.4 95.82 414.66 93.72 414.3 93.36 416.04 95.46 416.4"/><polyline class="cls-3" points="106.62 412.92 106.92 412.2 102.78 411.48 102.42 412.2 106.62 412.92"/><polyline class="cls-3" points="102.06 412.2 102.42 411.48 97.86 410.82 97.86 411.48 102.06 412.2"/><polyline class="cls-3" points="97.56 411.18 97.56 410.82 93.36 409.74 93 410.82 97.56 411.18"/><polyline class="cls-3" points="97.2 414.3 97.2 412.56 93 411.84 92.64 413.58 97.2 414.3"/></g></svg>