<?xml version="1.0" standalone="no"?>
<!DOCTYPE svg PUBLIC "-//W3C//DTD SVG 20010904//EN"
 "http://www.w3.org/TR/2001/REC-SVG-20010904/DTD/svg10.dtd">
<svg version="1.0" xmlns="http://www.w3.org/2000/svg"
 width="194.000000pt" height="158.000000pt" viewBox="0 0 194.000000 158.000000"
 preserveAspectRatio="xMidYMid meet">

<g transform="translate(0.000000,158.000000) scale(0.100000,-0.100000)"
fill="#000000" stroke="none">
<path d="M0 790 l0 -790 970 0 970 0 0 790 0 790 -970 0 -970 0 0 -790z m1026
680 c213 -27 404 -149 504 -323 27 -46 85 -205 78 -213 -2 -1 -45 3 -97 9 -64
8 -96 17 -102 27 -4 8 -18 37 -31 65 -13 27 -51 77 -84 111 -188 189 -482 189
-669 0 -37 -38 -72 -86 -92 -127 l-31 -65 -94 -11 c-51 -6 -95 -9 -97 -7 -2 1
6 32 16 67 75 246 300 436 553 466 36 5 65 9 65 10 0 0 37 -4 81 -9z m438
-534 c72 -9 165 -21 209 -27 72 -11 78 -13 74 -33 -3 -11 -11 -61 -18 -111 -7
-49 -13 -91 -14 -93 -1 -1 -47 4 -101 12 -368 54 -940 54 -1304 1 -52 -8 -96
-12 -99 -10 -4 5 -42 218 -38 221 8 8 355 49 497 58 127 9 672 -4 794 -18z
m-931 -318 c40 -86 98 -153 165 -197 191 -122 440 -96 596 62 53 55 116 160
116 196 0 11 17 12 88 6 48 -4 91 -9 95 -12 14 -8 -3 -64 -45 -152 -77 -162
-250 -301 -429 -345 -84 -21 -234 -21 -318 0 -179 44 -351 183 -431 348 -23
48 -43 101 -44 119 -1 31 0 32 49 38 125 15 119 17 158 -63z"/>
<path d="M710 888 c0 -25 3 -66 6 -92 7 -46 7 -46 45 -46 56 0 94 36 94 89 0
56 -28 82 -94 89 l-51 5 0 -45z m102 -5 c39 -35 11 -103 -44 -103 -28 0 -28 1
-28 60 0 58 1 60 27 60 14 0 35 -7 45 -17z"/>
<path d="M870 871 c0 -32 3 -73 6 -90 6 -28 10 -31 45 -31 28 0 39 4 39 15 0
10 -10 15 -30 15 -23 0 -30 4 -30 20 0 15 7 20 25 20 31 0 33 17 3 22 -18 2
-23 10 -23 33 0 25 4 30 28 33 44 5 31 22 -18 22 l-45 0 0 -59z"/>
<path d="M990 840 c0 -53 4 -90 10 -90 6 0 10 13 10 29 0 16 3 43 6 60 l7 31
44 -57 c25 -32 48 -59 53 -61 12 -5 20 37 20 111 0 52 -3 67 -15 67 -10 0 -15
-16 -17 -62 l-3 -63 -45 62 c-25 34 -51 63 -57 63 -10 0 -13 -25 -13 -90z"/>
<path d="M1208 915 c-57 -32 -65 -99 -19 -146 31 -31 64 -36 105 -18 34 16 45
44 14 34 -81 -25 -118 -9 -118 51 0 53 67 85 104 49 16 -16 36 -20 36 -7 0 16
-36 42 -66 47 -17 3 -41 -1 -56 -10z"/>
<path d="M501 894 c-40 -33 -43 -89 -7 -131 31 -36 95 -39 127 -6 30 29 14 52
-16 23 -30 -29 -72 -23 -98 12 -42 57 15 117 85 90 40 -15 50 -6 19 19 -32 26
-74 24 -110 -7z"/>
<path d="M658 843 c4 -92 8 -111 23 -96 14 14 1 173 -15 173 -8 0 -10 -24 -8
-77z"/>
<path d="M1356 874 c-9 -68 -7 -146 3 -140 19 12 32 177 15 183 -7 2 -14 -17
-18 -43z"/>
<path d="M415 901 c-4 -7 -4 -38 0 -69 l7 -57 -61 59 c-33 33 -63 57 -67 54
-12 -13 10 -171 25 -176 11 -4 13 7 7 59 l-7 63 60 -57 c33 -31 63 -57 67 -57
8 0 -5 160 -16 179 -5 10 -9 11 -15 2z"/>
<path d="M1443 821 c-24 -43 -43 -81 -43 -85 0 -15 29 -4 35 14 5 15 15 20 40
20 29 0 36 -4 41 -25 5 -22 34 -37 34 -18 0 19 -52 173 -58 173 -4 0 -26 -35
-49 -79z m57 -13 c0 -5 -7 -8 -15 -8 -17 0 -18 2 -9 25 5 13 8 14 15 3 5 -7 9
-16 9 -20z"/>
<path d="M1606 875 c-24 -25 -20 -43 21 -80 36 -33 37 -35 20 -52 -15 -15 -21
-16 -38 -5 -21 13 -43 7 -33 -9 14 -23 56 -30 80 -14 35 23 32 68 -6 97 -37
27 -39 48 -4 48 16 0 24 5 22 13 -7 19 -44 20 -62 2z"/>
<path d="M234 848 c3 -18 9 -56 13 -85 3 -30 9 -56 14 -58 17 -11 20 18 8 95
-8 60 -15 80 -26 80 -12 0 -14 -7 -9 -32z"/>
</g>
</svg>
